<mxfile host="app.diagrams.net" agent="Mozilla/5.0 (Windows NT 10.0; Win64; x64) AppleWebKit/537.36 (KHTML, like Gecko) Chrome/135.0.0.0 Safari/537.36" version="26.2.15">
  <diagram name="Page-1" id="e7e014a7-5840-1c2e-5031-d8a46d1fe8dd">
    <mxGraphModel dx="1426" dy="711" grid="1" gridSize="10" guides="1" tooltips="1" connect="1" arrows="1" fold="1" page="1" pageScale="1" pageWidth="1169" pageHeight="826" background="none" math="0" shadow="0">
      <root>
        <mxCell id="0" />
        <mxCell id="1" parent="0" />
        <mxCell id="2" value="Customer" style="swimlane;whiteSpace=wrap" parent="1" vertex="1">
          <mxGeometry x="164.5" y="128" width="280" height="832" as="geometry" />
        </mxCell>
        <mxCell id="2LM7yrFRlsKo368t01_1-84" value="" style="edgeStyle=orthogonalEdgeStyle;rounded=0;orthogonalLoop=1;jettySize=auto;html=1;" parent="2" source="5" target="18" edge="1">
          <mxGeometry relative="1" as="geometry" />
        </mxCell>
        <mxCell id="5" value="" style="ellipse;shape=startState;fillColor=#000000;strokeColor=#ff0000;" parent="2" vertex="1">
          <mxGeometry x="100" y="32" width="30" height="30" as="geometry" />
        </mxCell>
        <mxCell id="7" value="Xem thông tin xe và &#xa;chọn đặt xe" style="" parent="2" vertex="1">
          <mxGeometry x="60" y="92" width="110" height="50" as="geometry" />
        </mxCell>
        <mxCell id="2LM7yrFRlsKo368t01_1-55" style="edgeStyle=orthogonalEdgeStyle;rounded=0;orthogonalLoop=1;jettySize=auto;html=1;entryX=0.5;entryY=0;entryDx=0;entryDy=0;" parent="2" source="8" target="10" edge="1">
          <mxGeometry relative="1" as="geometry" />
        </mxCell>
        <mxCell id="8" value="Điền thông tin vào&#xa;pop up" style="" parent="2" vertex="1">
          <mxGeometry x="60" y="272" width="110" height="50" as="geometry" />
        </mxCell>
        <mxCell id="2LM7yrFRlsKo368t01_1-58" style="edgeStyle=orthogonalEdgeStyle;rounded=0;orthogonalLoop=1;jettySize=auto;html=1;entryX=0.5;entryY=0;entryDx=0;entryDy=0;" parent="2" source="10" target="2LM7yrFRlsKo368t01_1-57" edge="1">
          <mxGeometry relative="1" as="geometry" />
        </mxCell>
        <mxCell id="10" value="Chọn phương thức&#xa;thanh tận nới hoặc &#xa;thanh toán online" style="" parent="2" vertex="1">
          <mxGeometry x="60" y="372" width="110" height="50" as="geometry" />
        </mxCell>
        <mxCell id="18" value="Thông báo hết xe" style="" parent="2" vertex="1">
          <mxGeometry x="60" y="176" width="110" height="50" as="geometry" />
        </mxCell>
        <mxCell id="2LM7yrFRlsKo368t01_1-66" style="edgeStyle=orthogonalEdgeStyle;rounded=0;orthogonalLoop=1;jettySize=auto;html=1;" parent="2" source="2LM7yrFRlsKo368t01_1-57" edge="1">
          <mxGeometry relative="1" as="geometry">
            <mxPoint x="15.5" y="652" as="targetPoint" />
          </mxGeometry>
        </mxCell>
        <mxCell id="2LM7yrFRlsKo368t01_1-57" value="" style="rhombus;whiteSpace=wrap;html=1;" parent="2" vertex="1">
          <mxGeometry x="80" y="474" width="70" height="56" as="geometry" />
        </mxCell>
        <mxCell id="2LM7yrFRlsKo368t01_1-61" value="Hiển thị thông báo&#xa; đặt hàng &#xa;thành công" style="" parent="2" vertex="1">
          <mxGeometry x="5.5" y="662" width="110" height="50" as="geometry" />
        </mxCell>
        <mxCell id="2LM7yrFRlsKo368t01_1-72" value="" style="edgeStyle=orthogonalEdgeStyle;rounded=0;orthogonalLoop=1;jettySize=auto;html=1;entryX=0.5;entryY=0;entryDx=0;entryDy=0;" parent="2" source="2LM7yrFRlsKo368t01_1-67" target="2LM7yrFRlsKo368t01_1-73" edge="1">
          <mxGeometry relative="1" as="geometry">
            <mxPoint x="210.5" y="622" as="targetPoint" />
          </mxGeometry>
        </mxCell>
        <mxCell id="2LM7yrFRlsKo368t01_1-67" value="Người dùng nhập&#xa;thông tin thanh toán" style="" parent="2" vertex="1">
          <mxGeometry x="150" y="552" width="110" height="50" as="geometry" />
        </mxCell>
        <mxCell id="2LM7yrFRlsKo368t01_1-70" value="Thanh toán online" style="text;html=1;align=center;verticalAlign=middle;whiteSpace=wrap;rounded=0;" parent="2" vertex="1">
          <mxGeometry x="150" y="452" width="60" height="30" as="geometry" />
        </mxCell>
        <mxCell id="2LM7yrFRlsKo368t01_1-71" value="Thanh toán tận nơi" style="text;html=1;align=center;verticalAlign=middle;whiteSpace=wrap;rounded=0;" parent="2" vertex="1">
          <mxGeometry x="20.5" y="462" width="60" height="30" as="geometry" />
        </mxCell>
        <mxCell id="2LM7yrFRlsKo368t01_1-75" style="edgeStyle=orthogonalEdgeStyle;rounded=0;orthogonalLoop=1;jettySize=auto;html=1;entryX=1;entryY=0.5;entryDx=0;entryDy=0;" parent="2" source="2LM7yrFRlsKo368t01_1-73" target="2LM7yrFRlsKo368t01_1-61" edge="1">
          <mxGeometry relative="1" as="geometry" />
        </mxCell>
        <mxCell id="2LM7yrFRlsKo368t01_1-73" value="" style="rhombus;whiteSpace=wrap;html=1;" parent="2" vertex="1">
          <mxGeometry x="170.5" y="622" width="69" height="56" as="geometry" />
        </mxCell>
        <mxCell id="2LM7yrFRlsKo368t01_1-76" value="Thành công" style="text;html=1;align=center;verticalAlign=middle;whiteSpace=wrap;rounded=0;" parent="2" vertex="1">
          <mxGeometry x="90.5" y="612" width="60" height="30" as="geometry" />
        </mxCell>
        <mxCell id="2LM7yrFRlsKo368t01_1-77" value="" style="endArrow=classic;html=1;rounded=0;exitX=1;exitY=0.5;exitDx=0;exitDy=0;entryX=1;entryY=0.5;entryDx=0;entryDy=0;" parent="2" source="2LM7yrFRlsKo368t01_1-73" target="10" edge="1">
          <mxGeometry width="50" height="50" relative="1" as="geometry">
            <mxPoint x="395.5" y="512" as="sourcePoint" />
            <mxPoint x="445.5" y="462" as="targetPoint" />
            <Array as="points">
              <mxPoint x="515.5" y="652" />
              <mxPoint x="515.5" y="397" />
            </Array>
          </mxGeometry>
        </mxCell>
        <mxCell id="3" value="Hệ thống" style="swimlane;whiteSpace=wrap" parent="1" vertex="1">
          <mxGeometry x="444.5" y="128" width="280" height="832" as="geometry" />
        </mxCell>
        <mxCell id="2LM7yrFRlsKo368t01_1-49" value="" style="edgeStyle=orthogonalEdgeStyle;rounded=0;orthogonalLoop=1;jettySize=auto;html=1;" parent="3" source="16" target="2LM7yrFRlsKo368t01_1-44" edge="1">
          <mxGeometry relative="1" as="geometry" />
        </mxCell>
        <mxCell id="16" value="Kiểm tra xem &#xa;còn xe hay không" style="" parent="3" vertex="1">
          <mxGeometry x="75.5" y="92" width="110" height="50" as="geometry" />
        </mxCell>
        <mxCell id="30" value="Điều hướng đến &#xa;trang&#xa;thanh toán vnpay" style="" parent="3" vertex="1">
          <mxGeometry x="85.5" y="477" width="110" height="50" as="geometry" />
        </mxCell>
        <mxCell id="15" value="Hiển thị popup&#xa;điền thông tin" style="" parent="3" vertex="1">
          <mxGeometry x="75.5" y="272" width="110" height="50" as="geometry" />
        </mxCell>
        <mxCell id="2LM7yrFRlsKo368t01_1-51" value="" style="edgeStyle=orthogonalEdgeStyle;rounded=0;orthogonalLoop=1;jettySize=auto;html=1;" parent="3" source="2LM7yrFRlsKo368t01_1-44" target="15" edge="1">
          <mxGeometry relative="1" as="geometry" />
        </mxCell>
        <mxCell id="2LM7yrFRlsKo368t01_1-44" value="" style="rhombus;whiteSpace=wrap;html=1;" parent="3" vertex="1">
          <mxGeometry x="95.75" y="172" width="69.5" height="58" as="geometry" />
        </mxCell>
        <mxCell id="2LM7yrFRlsKo368t01_1-50" value="Không còn" style="text;html=1;align=center;verticalAlign=middle;whiteSpace=wrap;rounded=0;" parent="3" vertex="1">
          <mxGeometry x="35.5" y="172" width="60" height="30" as="geometry" />
        </mxCell>
        <mxCell id="2LM7yrFRlsKo368t01_1-52" value="Còn xe" style="text;html=1;align=center;verticalAlign=middle;whiteSpace=wrap;rounded=0;" parent="3" vertex="1">
          <mxGeometry x="140.5" y="230" width="60" height="30" as="geometry" />
        </mxCell>
        <mxCell id="2LM7yrFRlsKo368t01_1-78" value="Thất bại" style="text;html=1;align=center;verticalAlign=middle;whiteSpace=wrap;rounded=0;" parent="3" vertex="1">
          <mxGeometry x="95.5" y="612" width="60" height="30" as="geometry" />
        </mxCell>
        <mxCell id="2LM7yrFRlsKo368t01_1-82" value="" style="edgeStyle=orthogonalEdgeStyle;rounded=0;orthogonalLoop=1;jettySize=auto;html=1;" parent="3" source="2LM7yrFRlsKo368t01_1-79" target="38" edge="1">
          <mxGeometry relative="1" as="geometry" />
        </mxCell>
        <mxCell id="2LM7yrFRlsKo368t01_1-79" value="Lưu thông tin đơn&#xa;hàng vào database" style="" parent="3" vertex="1">
          <mxGeometry x="95.75" y="698" width="110" height="50" as="geometry" />
        </mxCell>
        <mxCell id="38" value="" style="ellipse;shape=endState;fillColor=#000000;strokeColor=#ff0000" parent="3" vertex="1">
          <mxGeometry x="135.25" y="782" width="30" height="30" as="geometry" />
        </mxCell>
        <mxCell id="2LM7yrFRlsKo368t01_1-43" style="edgeStyle=orthogonalEdgeStyle;rounded=0;orthogonalLoop=1;jettySize=auto;html=1;" parent="1" source="7" target="16" edge="1">
          <mxGeometry relative="1" as="geometry" />
        </mxCell>
        <mxCell id="2LM7yrFRlsKo368t01_1-47" style="edgeStyle=orthogonalEdgeStyle;rounded=0;orthogonalLoop=1;jettySize=auto;html=1;entryX=1;entryY=0.5;entryDx=0;entryDy=0;" parent="1" source="2LM7yrFRlsKo368t01_1-44" target="18" edge="1">
          <mxGeometry relative="1" as="geometry" />
        </mxCell>
        <mxCell id="2LM7yrFRlsKo368t01_1-53" value="" style="endArrow=classic;html=1;rounded=0;exitX=0;exitY=0.5;exitDx=0;exitDy=0;entryX=1;entryY=0.5;entryDx=0;entryDy=0;" parent="1" source="15" target="8" edge="1">
          <mxGeometry width="50" height="50" relative="1" as="geometry">
            <mxPoint x="560" y="520" as="sourcePoint" />
            <mxPoint x="610" y="470" as="targetPoint" />
          </mxGeometry>
        </mxCell>
        <mxCell id="2LM7yrFRlsKo368t01_1-59" style="edgeStyle=orthogonalEdgeStyle;rounded=0;orthogonalLoop=1;jettySize=auto;html=1;" parent="1" source="2LM7yrFRlsKo368t01_1-57" target="30" edge="1">
          <mxGeometry relative="1" as="geometry" />
        </mxCell>
        <mxCell id="2LM7yrFRlsKo368t01_1-68" value="" style="endArrow=classic;html=1;rounded=0;exitX=0.5;exitY=1;exitDx=0;exitDy=0;entryX=1;entryY=0.5;entryDx=0;entryDy=0;" parent="1" source="30" target="2LM7yrFRlsKo368t01_1-67" edge="1">
          <mxGeometry width="50" height="50" relative="1" as="geometry">
            <mxPoint x="560" y="770" as="sourcePoint" />
            <mxPoint x="610" y="720" as="targetPoint" />
            <Array as="points">
              <mxPoint x="585" y="705" />
            </Array>
          </mxGeometry>
        </mxCell>
        <mxCell id="2LM7yrFRlsKo368t01_1-80" style="edgeStyle=orthogonalEdgeStyle;rounded=0;orthogonalLoop=1;jettySize=auto;html=1;entryX=0;entryY=0.75;entryDx=0;entryDy=0;" parent="1" source="2LM7yrFRlsKo368t01_1-61" target="2LM7yrFRlsKo368t01_1-79" edge="1">
          <mxGeometry relative="1" as="geometry">
            <Array as="points">
              <mxPoint x="225" y="864" />
              <mxPoint x="410" y="864" />
            </Array>
          </mxGeometry>
        </mxCell>
        <mxCell id="2LM7yrFRlsKo368t01_1-85" value="Chức năng đặt đơn thuê xe" style="rounded=0;whiteSpace=wrap;html=1;" parent="1" vertex="1">
          <mxGeometry x="164.5" y="90" width="560" height="38" as="geometry" />
        </mxCell>
      </root>
    </mxGraphModel>
  </diagram>
</mxfile>
